<?xml version="1.0" encoding="UTF-8"?>
<svg version="1.1" viewBox="0 0 48 48" xmlns="http://www.w3.org/2000/svg">
	<path d="m36.31 5c5.859 4.062 9.688 10.831 9.688 18.5 0 12.426-10.07 22.5-22.5 22.5-7.669 0-14.438-3.828-18.5-9.688 1.037 1.822 2.306 3.499 3.781 4.969 4.085 3.712 9.514 5.969 15.469 5.969 12.703 0 23-10.298 23-23 0-5.954-2.256-11.384-5.969-15.469-1.469-1.475-3.147-2.744-4.969-3.781zm4.969 3.781c3.854 4.113 6.219 9.637 6.219 15.719 0 12.703-10.297 23-23 23-6.081 0-11.606-2.364-15.719-6.219 4.16 4.144 9.883 6.719 16.219 6.719 12.703 0 23-10.298 23-23 0-6.335-2.575-12.06-6.719-16.219z" style="opacity:.05"/>
	<path d="m41.28 8.781c3.712 4.085 5.969 9.514 5.969 15.469 0 12.703-10.297 23-23 23-5.954 0-11.384-2.256-15.469-5.969 4.113 3.854 9.637 6.219 15.719 6.219 12.703 0 23-10.298 23-23 0-6.081-2.364-11.606-6.219-15.719z" style="opacity:.1"/>
	<path d="m31.25 2.375c8.615 3.154 14.75 11.417 14.75 21.13 0 12.426-10.07 22.5-22.5 22.5-9.708 0-17.971-6.135-21.12-14.75a23 23 0 0044.875-7 23 23 0 00-16-21.875z" style="opacity:.2"/>
	<g transform="matrix(0,-1,1,0,0,48)" style="fill-opacity:.94118;fill:#f0f0ff">
		<path transform="rotate(90,24,24)" d="m24 1c-12.703 0-23 10.297-23 23s10.297 23 23 23 23-10.297 23-23-10.297-23-23-23zm-14.32 7.9043h13.416v1.4785c-.33333.13889-.66667.24306-1 .3125-.33333.069445-.63064.14518-.89453.22852-.58333.18056-.875.48741-.875.91797 0 .22222.29731.83203.89453 1.832l12.334 20.688c.63889 1.0833 1.5896 1.8333 2.8535 2.25.29167.097222.55686.21658.79297.35547v1.541h-13.625v-1.5c.30556-.15278.61806-.26454.9375-.33398.33333-.083333.63064-.16667.89453-.25.625-.20833.9375-.5549.9375-1.041 0-.5-.35417-1.3333-1.0625-2.5l-10.916-18.104c-1.2222-2.0278-2.0007-3.1528-2.334-3.375-.33333-.22222-.625-.37565-.875-.45898-.25-.097222-.50564-.17296-.76953-.22852-.25-.055553-.48676-.13889-.70898-.25v-1.5625zm16.666 0h9.709v1.5195c-.33334.125-.6875.22917-1.0625.3125-.375.069444-.75.17361-1.125.3125-.91667.33333-1.6326.8826-2.1465 1.6465l-5.0195 7.4375-1.375-2.2715 2.8945-4.2695c.44444-.63889.66797-1.1332.66797-1.4805 0-.36111-.090929-.61675-.27148-.76953-.16667-.15278-.375-.27778-.625-.375-.25-.097222-.52843-.18056-.83398-.25-.29167-.083333-.5625-.1951-.8125-.33398v-1.4785zm-7.125 16.895 1.5 2.459-3.291 5c-.63889.95833-.95898 1.625-.95898 2 0 .36111.098525.62435.29297.79102.19444.16667.43685.29926.72852.39648.30556.097222.63129.18815.97852.27148.34722.069445.67491.17925.98047.33203v1.459h-10.396v-1.459c.29167-.13889.61176-.2487.95898-.33203.36111-.097222.72852-.22222 1.1035-.375.875-.36111 1.6118-.98047 2.209-1.8555l5.8945-8.6875z" style="fill-opacity:.4902;fill:#282837"/>
	</g>
	<path d="m40.03 7.531c3.712 4.084 5.969 9.514 5.969 15.469 0 12.703-10.297 23-23 23-5.954 0-11.384-2.256-15.469-5.969 4.178 4.291 10.01 6.969 16.469 6.969 12.703 0 23-10.298 23-23 0-6.462-2.677-12.291-6.969-16.469z" style="opacity:.1"/>
</svg>
